<svg width="14px" height="16px" viewBox="0 0 14 16" version="1.1" xmlns="http://www.w3.org/2000/svg" xmlns:xlink="http://www.w3.org/1999/xlink">
    <!-- Generator: Sketch 46.2 (44496) - http://www.bohemiancoding.com/sketch -->
    <desc>Created with Sketch.</desc>
    <defs></defs>
    <g id="Symbols" stroke="none" stroke-width="1" fill="none" fill-rule="evenodd">
        <g id="Components/Buttons/Delete" transform="translate(-8.000000, -7.000000)" fill-rule="nonzero" fill="#4A4A4A">
            <path d="M21.1111111,9.025 L17.8222222,9.025 L17.8222222,8.44 C17.8222222,7.7425 17.2666667,7.18 16.5777778,7.18 L13.1777778,7.18 C12.4888889,7.18 11.9333333,7.7425 11.9333333,8.44 L11.9333333,9.025 L8.62222222,9.025 C8.31111111,9.025 8.04444444,9.295 8.04444444,9.61 C8.04444444,9.925 8.31111111,10.195 8.62222222,10.195 L9.46666667,10.195 L9.46666667,20.4775 C9.46666667,21.6475 10.4,22.5925 11.5555556,22.5925 L18.2222222,22.5925 C19.3777778,22.5925 20.3111111,21.6475 20.3111111,20.4775 L20.3111111,10.1725 L21.1555556,10.1725 C21.4666667,10.1725 21.7333333,9.9025 21.7333333,9.5875 C21.7333333,9.2725 21.4666667,9.025 21.1111111,9.025 Z M13.1777778,8.305 L16.5777778,8.305 C16.6444444,8.305 16.7111111,8.3725 16.7111111,8.44 L16.7111111,9.025 L13.0444444,9.025 L13.0444444,8.44 C13.0444444,8.3725 13.1111111,8.305 13.1777778,8.305 Z M14.8666667,19.825 C14.5555556,19.825 14.2888889,19.5775 14.2888889,19.2625 L14.2888889,12.31 C14.2888889,11.995 14.5555556,11.725 14.8666667,11.725 C15.1777778,11.725 15.4222222,11.995 15.4222222,12.31 L15.4222222,19.24 C15.4222222,19.5775 15.1777778,19.825 14.8666667,19.825 Z M17.3777778,19.825 C17.0888889,19.825 16.8444444,19.6 16.8,19.2625 L16.8,12.31 C16.8,11.995 17.0666667,11.725 17.3777778,11.725 C17.6888889,11.725 17.9555556,11.995 17.9555556,12.31 L17.9555556,19.24 C17.9555556,19.555 17.6888889,19.825 17.3777778,19.825 Z M12.3777778,19.825 C12.0444444,19.825 11.8,19.5775 11.8,19.2625 L11.8,12.31 C11.8,11.995 12.0666667,11.725 12.3777778,11.725 C12.6888889,11.725 12.9555556,11.995 12.9555556,12.31 L12.9555556,19.24 C12.9555556,19.555 12.6888889,19.825 12.3777778,19.825 Z" id="trash-icon"></path>
        </g>
    </g>
</svg>