<svg width="18px" height="14px" viewBox="0 0 18 14" version="1.1" xmlns="http://www.w3.org/2000/svg" xmlns:xlink="http://www.w3.org/1999/xlink">
    <!-- Generator: Sketch 46.2 (44496) - http://www.bohemiancoding.com/sketch -->
    <desc>Created with Sketch.</desc>
    <defs></defs>
    <g id="Symbols" stroke="none" stroke-width="1" fill="none" fill-rule="evenodd">
        <g id="Card" transform="translate(-12.000000, -60.000000)" fill-rule="nonzero" fill="#BBBBBA">
            <g id="info" transform="translate(12.000000, 60.000000)">
                <g id="email">
                    <g id="email-icon">
                        <path d="M9.24,7.64672727 L16.5005455,0.255818182 C16.3767273,0.222 16.248,0.194727273 16.1127273,0.194727273 L1.41763636,0.194727273 C1.28236364,0.194727273 1.15581818,0.222 1.02872727,0.255818182 L8.28981818,7.64672727 C8.53963636,7.90472727 8.98527273,7.90472727 9.24,7.64672727 Z" id="Shape"></path>
                        <path d="M10.2316364,8.65527273 C9.834,9.05290909 9.31090909,9.27872727 8.76327273,9.27872727 C8.20745455,9.27872727 7.68381818,9.05890909 7.29272727,8.65527273 L0.0665454545,1.30309091 C0.0523636364,1.398 0.036,1.49618182 0.036,1.59381818 L0.036,11.8794545 C0.036,12.6529091 0.653454545,13.2812727 1.41109091,13.2812727 L16.1045455,13.2812727 C16.866,13.2812727 17.4818182,12.6529091 17.4818182,11.8794545 L17.4818182,1.59436364 C17.4818182,1.49181818 17.4703636,1.39854545 17.448,1.30363636 L10.2316364,8.65527273 Z" id="Shape"></path>
                    </g>
                </g>
            </g>
        </g>
    </g>
</svg>